<svg width="43" height="31" viewBox="0 0 43 31" fill="none" xmlns="http://www.w3.org/2000/svg">
<path d="M39.875 0.1875H3.125C2.31277 0.1875 1.53382 0.510155 0.959485 1.08449C0.385155 1.65882 0.0625 2.43777 0.0625 3.25V27.75C0.0625 28.5622 0.385155 29.3412 0.959485 29.9155C1.53382 30.4898 2.31277 30.8125 3.125 30.8125H39.875C40.6872 30.8125 41.4662 30.4898 42.0405 29.9155C42.6148 29.3412 42.9375 28.5622 42.9375 27.75V3.25C42.9375 2.43777 42.6148 1.65882 42.0405 1.08449C41.4662 0.510155 40.6872 0.1875 39.875 0.1875ZM36.5062 3.25L21.5 13.6319L6.49375 3.25H36.5062ZM3.125 27.75V4.64344L20.6272 16.7556C20.8835 16.9334 21.188 17.0287 21.5 17.0287C21.812 17.0287 22.1165 16.9334 22.3728 16.7556L39.875 4.64344V27.75H3.125Z" fill="white"/>
</svg>
